<?xml version="1.0" encoding="utf-8"?>
<!-- Generator: Adobe Illustrator 24.0.1, SVG Export Plug-In . SVG Version: 6.00 Build 0)  -->
<svg version="1.1" id="Camada_1" xmlns="http://www.w3.org/2000/svg" xmlns:xlink="http://www.w3.org/1999/xlink" x="0px" y="0px"
	 viewBox="0 0 841.89 595.28" style="enable-background:new 0 0 841.89 595.28;" xml:space="preserve">
<style type="text/css">
	.st0{stroke:#000000;stroke-miterlimit:10;}
	.st1{fill:url(#SVGID_1_);stroke:#000000;stroke-miterlimit:10;}
	.st2{fill:#0093EB;stroke:#000000;stroke-miterlimit:10;}
	.st3{fill:#0000C6;stroke:#000000;stroke-miterlimit:10;}
	.st4{fill:#000080;stroke:#000000;stroke-miterlimit:10;}
	.st5{fill:#000055;stroke:#000000;stroke-miterlimit:10;}
	.st6{fill:#00003A;stroke:#000000;stroke-miterlimit:10;}
	.st7{fill:#DFE4E3;}
	.st8{fill:#213668;}
	.st9{fill:#374E85;}
	.st10{fill:#A0A2A1;}
	.st11{fill:#B9BEBD;}
	.st12{fill:#314A81;}
	.st13{fill:#1C2C50;}
	.st14{fill:#E1E7EA;}
	.st15{fill:#A8AAA9;}
	.st16{fill:#324A82;}
	.st17{fill:#334D84;}
	.st18{fill:#7B7B75;}
	.st19{fill:#2E4363;}
	.st20{fill:#3A475E;}
	.st21{fill:#CBCDCC;}
	.st22{fill:#344D85;}
	.st23{fill:#364E84;}
	.st24{fill:#AFB1B1;}
	.st25{fill:#3E507A;}
	.st26{fill:#394D78;}
	.st27{fill:#3E4F7D;}
	.st28{fill:#3A4E7C;}
	.st29{fill:#404D7A;}
	.st30{fill:#E8ECED;}
	.st31{fill:#394C74;}
	.st32{fill:#394D75;}
	.st33{fill:#3E527E;}
	.st34{fill:#3B4F79;}
	.st35{fill:#445074;}
	.st36{fill:#415273;}
	.st37{fill:#425072;}
	.st38{fill:#2E4164;}
	.st39{fill:#0000C6;}
</style>
<path class="st0" d="M445.2,146.86v-38.84c0-5.76-4.67-10.43-10.43-10.43h-42.89c-5.76,0-10.43,4.67-10.43,10.43v37.93
	c-83.84,13.98-147.75,86.85-147.75,174.66c0,97.81,79.29,177.09,177.09,177.09S587.9,418.41,587.9,320.61
	C587.9,234.57,526.54,162.88,445.2,146.86z"/>
<linearGradient id="SVGID_1_" gradientUnits="userSpaceOnUse" x1="240.4801" y1="297.5929" x2="582.8579" y2="297.5929">
	<stop  offset="0" style="stop-color:#F2F2F2"/>
	<stop  offset="0.0799" style="stop-color:#ECECEC"/>
	<stop  offset="0.1869" style="stop-color:#DBDBDB"/>
	<stop  offset="0.3093" style="stop-color:#BFBFBF"/>
	<stop  offset="0.4431" style="stop-color:#989898"/>
	<stop  offset="0.5847" style="stop-color:#676767"/>
	<stop  offset="0.5863" style="stop-color:#666666"/>
	<stop  offset="0.945" style="stop-color:#666666"/>
	<stop  offset="1" style="stop-color:#666666"/>
</linearGradient>
<path class="st1" d="M437.81,151.91v-40.84c0-4.74-3.84-8.58-8.58-8.58h-32.76c-4.74,0-8.58,3.84-8.58,8.58l0.24,40.75
	c-85.05,15.1-147.64,80.77-147.64,168.86c0,95.54,74.27,172.01,169.81,172.01s172.57-74.52,172.57-170.06
	C582.86,236.61,520.06,165.27,437.81,151.91z M410.85,424.24c-56.13,0-101.63-45.5-101.63-101.63c0-56.13,45.5-101.63,101.63-101.63
	c56.13,0,101.63,45.5,101.63,101.63C512.47,378.74,466.97,424.24,410.85,424.24z"/>
<path class="st2" d="M388.12,218.66l-19.05,5.49c0,0-12.13-29.55-21.78-54.31c8.86-3.72,20.76-7.68,32.01-8.89
	C382.7,178.84,388.12,218.66,388.12,218.66z"/>
<path class="st3" d="M365.3,226.61l-17.33,9.63c0,0-18.47-26.06-33.44-48.02c7.8-5.62,18.5-12.16,29.19-15.87
	C351.06,189.02,365.3,226.61,365.3,226.61z"/>
<path class="st4" d="M344.86,239.48l-14.72,13.29c0,0-23.86-21.24-43.38-39.27c6.34-7.23,15.29-16.01,24.88-22.03
	C322.53,206.06,344.86,239.48,344.86,239.48z"/>
<path class="st5" d="M327.83,256.62l-11.35,16.26c0,0-28.02-15.33-51.1-28.5c4.55-8.47,11.3-19.04,19.28-27.06
	C298.56,229.08,327.83,256.62,327.83,256.62z"/>
<path class="st6" d="M315.1,277.16l-7.4,18.39c0,0-30.75-8.63-56.2-16.28c2.53-9.27,6.73-21.09,12.7-30.7
	C280.38,256.91,315.1,277.16,315.1,277.16z"/>
<path class="st2" d="M307.31,300.03l-3.08,19.59c0,0-31.9-1.49-58.43-3.22c0.38-9.6,1.81-22.06,5.47-32.77
	C268.92,288.11,307.31,300.03,307.31,300.03z"/>
<path class="st3" d="M304.86,324.07l1.41,19.78c0,0-31.42,5.72-57.65,10.01c-1.79-9.44-3.2-21.9-2.04-33.16
	C264.78,321.08,304.86,324.07,304.86,324.07z"/>
<path class="st4" d="M307.89,348.04l5.82,18.95c0,0-29.33,12.65-53.92,22.72c-3.87-8.8-8.05-20.62-9.45-31.85
	C268.16,354.15,307.89,348.04,307.89,348.04z"/>
<path class="st5" d="M316.23,370.71l9.94,17.16c0,0-25.73,18.92-47.43,34.27c-5.75-7.7-12.48-18.29-16.37-28.91
	C278.9,385.6,316.23,370.71,316.23,370.71z"/>
<path class="st6" d="M329.46,390.93L343,405.42c0,0-20.82,24.22-38.5,44.06c-7.34-6.21-16.27-15.01-22.46-24.49
	C296.43,413.84,329.46,390.93,329.46,390.93z"/>
<path class="st2" d="M346.89,407.66l16.45,11.07c0,0-14.84,28.28-27.61,51.59c-8.54-4.4-19.23-10.96-27.39-18.81
	C319.87,437.41,346.89,407.66,346.89,407.66z"/>
<path class="st3" d="M367.65,420.03l18.52,7.08c0,0-8.09,30.9-15.29,56.48c-9.31-2.37-21.2-6.36-30.92-12.16
	C348.01,455.1,367.65,420.03,367.65,420.03z"/>
<path class="st4" d="M390.65,427.42l19.64,2.73c0,0-0.93,31.93-2.2,58.47c-9.61-0.21-22.09-1.42-32.86-4.9
	C379.4,466,390.65,427.42,390.65,427.42z"/>
<path class="st5" d="M414.73,429.44l19.75-1.75c0,0,6.27,31.32,11.01,57.47c-9.41,1.96-21.85,3.58-33.12,2.62
	C412.45,469.57,414.73,429.44,414.73,429.44z"/>
<path class="st6" d="M438.64,426l18.85-6.15c0,0,13.16,29.1,23.66,53.52c-8.73,4.02-20.48,8.4-31.68,10.01
	C445.45,465.61,438.64,426,438.64,426z"/>
<path class="st2" d="M461.17,417.26l16.98-10.23c0,0,19.37,25.4,35.09,46.82c-7.6,5.88-18.06,12.8-28.62,16.88
	C476.71,454.33,461.17,417.26,461.17,417.26z"/>
<path class="st3" d="M481.15,403.68l14.25-13.79c0,0,24.58,20.39,44.73,37.73c-6.08,7.44-14.72,16.53-24.09,22.88
	C504.63,436.31,481.15,403.68,481.15,403.68z"/>
<path class="st4" d="M497.57,385.96l10.78-16.64c0,0,28.54,14.34,52.07,26.7c-4.25,8.62-10.63,19.42-18.33,27.72
	C527.79,412.46,497.57,385.96,497.57,385.96z"/>
<path class="st5" d="M509.58,364.99l6.76-18.64c0,0,31.03,7.55,56.74,14.3c-2.2,9.35-5.99,21.31-11.62,31.13
	C544.99,384.02,509.58,364.99,509.58,364.99z"/>
<path class="st6" d="M516.57,341.86l2.39-19.68c0,0,31.94,0.38,58.5,1.17c-0.04,9.61-1.04,22.11-4.32,32.94
	C555.34,352.44,516.57,341.86,516.57,341.86z"/>
<path class="st2" d="M518.17,317.75l-2.1-19.72c0,0,31.2-6.82,57.27-12.02c2.12,9.37,3.96,21.78,3.2,33.07
	C558.33,319.34,518.17,317.75,518.17,317.75z"/>
<path class="st3" d="M514.31,293.9l-6.48-18.74c0,0,28.87-13.66,53.1-24.59c4.18,8.66,8.76,20.33,10.56,31.5
	C553.8,286.41,514.31,293.9,514.31,293.9z"/>
<path class="st4" d="M505.18,271.53l-10.53-16.8c0,0,25.06-19.81,46.2-35.9c6.02,7.5,13.11,17.84,17.37,28.32
	C541.97,255.35,505.18,271.53,505.18,271.53z"/>
<path class="st5" d="M491.26,251.79l-14.04-14c0,0,19.96-24.93,36.94-45.38c7.55,5.95,16.79,14.43,23.3,23.69
	C523.46,227.74,491.26,251.79,491.26,251.79z"/>
<path class="st6" d="M473.25,235.68l-16.83-10.49c0,0,13.84-28.79,25.79-52.52c8.69,4.1,19.6,10.29,28.03,17.84
	C499.22,205.01,473.25,235.68,473.25,235.68z"/>
<path class="st2" d="M452.07,224.04l-18.76-6.43c0,0,7.01-31.16,13.31-56.98c9.39,2.04,21.41,5.61,31.33,11.08
	C470.48,188.31,452.07,224.04,452.07,224.04z"/>
<g>
	<path d="M412.12,107.63h-8.72c-4.47,0-8.09,3.62-8.09,8.09v41.27c-3.76,0.55-7.55,1.35-11.17,2.48c1.63,18.7,10.6,57.42,10.6,57.42
		l16.44-0.09c0,0,0-0.06,0-0.14l0.94,0.07V107.63z"/>
	<path d="M430.39,157.95v-42.23c0-4.47-3.62-8.09-8.09-8.09h-8.46v109.22l13.63,0.96c0,0,11.32-38.06,14.09-56.62
		C437.97,159.8,434.17,158.74,430.39,157.95z"/>
</g>
<g>
	<g>
		<g>
			<path class="st7" d="M421.51,316.84c1.8,0.54,3.6,1.1,5.42,1.61c0.63,0.18,1.07,0.49,1.31,1.03c0.13,1.31-1.3,1.63-2.06,2.33
				c-1.35,1.26-1.46,1.34-0.02,2.11c1.69,0.89,3.06,2.14,4.75,3.02c1.55,0.14,2.84-0.79,4.27-1.16c0.18-0.07,0.36-0.14,0.54-0.19
				c0.64-0.22,1.28-0.42,1.94-0.56c1.93,0.75,3,2.31,4.21,3.68c3.32,3.74,5.6,7.95,5.77,13.02c-1.17,0.6-2.24,0.09-3.32-0.01
				c-1.56-0.15-3.13-0.3-4.68-0.53c-1.16-0.17-1.69,0.25-1.83,1.26c-0.15,1.09-0.49,2.16-1.01,3.17c-0.64,1.23-0.2,1.8,1.09,2.07
				c2.14,0.45,4.03,1.37,6,2.13c0.49,0.19,1.06,0.35,1.13,0.96c0.23,0.54,0.33,1.08-0.26,1.59c-4.07,6.19-10.35,9.76-17.52,12.3
				c-0.85,0.3-1.72,0.65-2.61,0.29c-0.17-0.09-0.32-0.2-0.45-0.33c-1.31-1.82-2.52-3.7-3.83-5.51c-0.6-0.84-1.35-1.12-2.52-0.9
				c-2.66,0.5-5.32,0.99-8,1.04c-1,0.02-1.16,0.46-1.09,1.22c0.16,1.95,0.43,3.88,0.45,5.86c-0.02,0.36-0.09,0.71-0.41,0.99
				c-2.39,0.81-4.67,0.23-6.95,0.04c-4.08-0.34-8.1-0.91-11.89-2.16c-1.98-0.37-3.68-1.33-5.66-1.71c-2.43-0.72-4.38-2.14-6.62-3.14
				c-0.4-0.18-0.63-0.5-0.56-0.96c0.07-0.17,0.16-0.32,0.28-0.47c1.51-1.62,3.45-2.81,5.19-4.2c1.07-0.86,1.4-1.5,0.13-2.25
				c-1.74-1.03-3.13-2.4-4.6-3.69c-0.75-0.66-1.53-0.79-2.57-0.4c-1.65,0.6-3.31,1.17-4.96,1.78c-4.1,1.44-4.33,1.41-6.02-1.93
				c-1.38-2.74-2.29-5.64-2.2-8.8c-0.01-0.49-0.02-0.97-0.04-1.46c0.44-0.72,0.83-1.45,0.42-2.23c0.42-1.44,0.41-2.99,1.74-4.2
				c0.57,0.1,1.14,0.15,1.7,0.27c2.06,0.2,4.13,0.37,6.14,0.73c1.14,0.21,1.97-0.06,2.53-1.11c0.59-1.11,1.23-2.2,2.12-3.18
				c0.66-0.73,0.36-1.09-0.47-1.35c-1.51-0.47-2.94-1.09-4.39-1.67c-0.59-0.24-1.33-0.36-1.47-1.08c1.67-1.98,3.87-3.44,6.26-4.53
				c4.63-2.1,9.32-4.1,14.45-4.61c0.18-0.02,0.36,0.04,0.54,0.07c1.15,0.77,1.6,2,2.38,3.01c0.58,0.75,1.29,1.06,2.36,0.91
				c1.78-0.26,3.56-0.28,5.34-0.41c1.98-0.14,2.03-0.28,2-1.96c-0.02-1.04-0.65-1.69-1.21-2.43c3.13-0.39,6.13-0.21,8.97,0.75
				c-1.2,1.28-1.5,2.9-2.41,4.3c-0.47,0.73,0.29,1.21,0.89,1.57c0.47,0.29,1.21,0.37,0.95,1.15c-0.04,0.17-0.18,0.37-0.11,0.49
				c0.57,0.96,3.64,1.31,4.7,0.55c0.23-0.11-0.09-0.08,0.15-0.1c3.29-0.29,3.77-2.62,4.59-4.73
				C420.7,317.69,420.65,317.01,421.51,316.84z"/>
			<path class="st8" d="M408.66,367.23c0.04-0.27,0.07-0.53,0.11-0.8c5.31,0.65,10.53-0.44,15.73-1.97
				c0.08,0.08,0.16,0.16,0.23,0.25c0.78,0.93-0.07,1.84-0.37,2.73c-0.39,1.16-0.86,2.32-1.78,3.31c-5.17,1.3-10.38,2.12-15.65,2.41
				c-0.17-0.07-0.29-0.17-0.36-0.32C406.99,370.91,407.49,369,408.66,367.23z"/>
			<path class="st9" d="M445.03,350.78c-2.71-1.02-5.4-2.07-8.13-3.04c-0.94-0.33-1.4-0.62-0.79-1.68c0.75-1.3,1.24-2.72,1.31-4.14
				c0.06-1.26,0.72-1.34,1.85-1.19c2.78,0.38,5.58,0.67,8.38,0.99c-0.52,2.69-0.72,5.41-1.95,8.02
				C445.52,350.12,445.49,350.54,445.03,350.78z"/>
			<path class="st10" d="M377.29,359.43c2.1,1.63,4.75,2.51,7.13,3.76c2.21,2.57,4.6,4.98,7.4,7.07c0.53,0.39,1.26,0.98,0.16,1.74
				c-5.05-0.92-9.65-2.67-14.04-4.85c-0.84-0.42-1.8-0.71-2.22-1.57c-0.21-1.85,0.45-3.67,0.83-5.5
				C376.62,359.76,376.75,359.37,377.29,359.43z"/>
			<path class="st11" d="M422.58,370.75c0.49-2.06,2.03-3.9,2.15-6.04c2.07,0.05,3.93-0.91,5.71-1.71c4.91-2.2,9.35-5.05,12.82-9.02
				c0.48-0.55,0.44-1.49,1.51-1.62c-3.62,7.91-9.66,13.8-18.61,17.18C424.99,369.99,424,371.06,422.58,370.75z"/>
			<path class="st12" d="M370.64,324.14c2.57,0.99,5.15,1.97,7.84,3c-1.53,1.71-2.82,3.37-3.72,5.2c-0.27,0.55-0.59,0.8-1.33,0.69
				c-2.46-0.36-4.95-0.64-7.43-0.96c-0.56-0.37-0.98-0.71-0.44-1.51c0.39-0.56,0.91-1.14,0.87-1.86
				C367.6,327.02,368.85,325.39,370.64,324.14z"/>
			<path class="st13" d="M377.29,359.43c-0.98,1.99-0.67,4.13-1.56,6.14c-3.6-2.55-6.89-5.38-9.75-8.6
				c-0.42-1.54-0.03-3.11,0.33-4.67c0.12-0.5,0.28-1.02,0.96-1.21c1.48,0.5,1.96,1.87,3.02,2.75c2.29,1.92,4.52,3.89,7.25,5.34
				C377.46,359.26,377.38,359.35,377.29,359.43z"/>
			<path class="st14" d="M410.89,321.97c0.05-0.94-1.1-0.68-1.6-1.15c-0.8-0.75-0.83-1.29-0.24-2.16c0.63-0.93,1.4-1.82,1.38-2.98
				c-0.01-0.79,0.84-0.52,1.3-0.73c2.46-0.54,4.54,0.36,6.7,0.88c1.05,0.25,2.25,0.28,3.07,1.01c-0.45,1.14-1.03,2.27-1.32,3.44
				c-0.55,2.18-2.22,2.71-4.31,2.8C413.98,323.33,412.24,323.16,410.89,321.97z"/>
			<path class="st15" d="M391.98,371.99c0.22-0.74-0.03-1.21-0.73-1.63c-2.34-1.41-3.86-3.56-5.92-5.23
				c-0.62-0.5-0.68-1.26-0.91-1.95c2,0.22,3.64,1.2,5.52,1.69c1.73,0.79,3.49,1.49,5,2.62c0.73,0.55,1.54,1,2.19,1.66
				c1.33,1.36,3.43,1.61,5.23,2.27c1.42,0.52,3.06,0.58,4.34,1.39c0.08,0.11,0.16,0.23,0.24,0.34c-0.1,0.32-0.37,0.26-0.61,0.25
				C401.46,373.28,396.58,373.26,391.98,371.99z"/>
			<path class="st16" d="M402.77,314.2c1.35-0.18,1.58,0.51,1.63,1.52c0.16,3.19,0.2,3.18-3.35,3.35c-0.7,0.03-1.4,0.07-2.1,0.13
				c-1.39,0.11-3.29,0.78-4.06,0.24c-1.45-1.03-2.41-2.66-3-4.36C395.52,314.61,399.15,314.36,402.77,314.2z"/>
			<path class="st17" d="M430.5,327.22c-1.91-1.16-3.79-2.35-5.73-3.46c-0.83-0.47-0.74-0.77,0.02-1.36c1.2-0.92,2.3-1.94,3.44-2.92
				c2.91,1.44,5.79,2.92,8.26,4.9c0.22,0.62-0.09,1.13-0.58,1.6c-0.14,0.05-0.28,0.09-0.42,0.14
				C433.79,326.27,432.28,327.48,430.5,327.22z"/>
			<path class="st18" d="M367.31,351.23c-0.97,1.29-0.76,2.72-1.04,4.09c-0.11,0.55,0.14,1.11-0.3,1.64
				c-2.77-3.72-4.1-7.92-4.01-12.57c0.03-1.65-0.03-3.32,0.4-4.98c0.66,1.88,0.66,3.95,1.53,5.78c0.29,0.6,0.47,1.25,0.73,1.86
				c1.65,3.91,1.65,3.91,6.26,2.58C370.2,351.22,368.74,351.19,367.31,351.23z"/>
			<path class="st19" d="M366.44,328.72c0.63-0.15,0.58-0.03,0.3,0.44c-0.56,0.92-1.4,1.85-0.73,2.92c-0.61,0-1.34,0.22-1.52-0.55
				C365.14,330.59,365.79,329.65,366.44,328.72z"/>
			<path class="st20" d="M435.92,325.98c0.19-0.53,0.38-1.07,0.58-1.6c0.39,0.21,0.78,0.42,1.17,0.64
				C437.42,325.88,436.53,325.71,435.92,325.98z"/>
			<path class="st21" d="M362.75,335.73c1.03,0.82,0.34,1.53-0.42,2.23C362.47,337.21,362.61,336.47,362.75,335.73z"/>
			<path class="st22" d="M424.5,364.47c-0.72,1.17-2.11,1.14-3.18,1.39c-3.26,0.76-6.57,1.18-9.88,1.37
				c-1.03,0.06-2.01-0.03-2.67-0.78c-0.19-2.11-0.32-4.23-0.59-6.33c-0.13-1.03,0.37-1.28,1.38-1.31c3.06-0.1,6.11-0.6,9.14-1.2
				c0.65-0.13,1.17-0.22,1.58,0.43C421.64,360.2,423.31,362.19,424.5,364.47z"/>
			<path class="st23" d="M367.31,351.23c1.12-0.68,2.56-0.69,3.57-1.6c1.71-0.62,3.44-1.21,5.13-1.87c0.89-0.35,1.51-0.36,2.15,0.31
				c1.69,1.78,3.62,3.36,5.8,4.66c0.92,0.55,0.66,0.93-0.11,1.51c-2.13,1.62-4.21,3.28-6.32,4.93c-1.12,0.14-1.78-0.44-2.55-0.99
				C372.11,356.14,369.43,353.93,367.31,351.23z"/>
			<path class="st24" d="M406.7,372.82c-3.27-0.3-6.24-1.36-9.01-2.63c-1.47-0.67-2.45-2.09-3.98-2.88
				c-0.85-0.44-1.38-1.28-2.57-1.34c-0.68-0.03-1.05-0.5-1.2-1.09c3.91,0.9,7.82,1.78,11.92,2.07c2.25,0.16,4.49,0.43,6.8,0.29
				C408.25,369.14,407.59,371.01,406.7,372.82z"/>
			<path class="st25" d="M384.31,346.06c0.69-0.51,1-0.15,1.37,0.15c0.85,0.69,1.74,1.35,2.6,2.03c0.32,0.26,1.03,0.49,0.34,1.01
				c-0.44,0.33-0.87,1.03-1.64,0.57c-1.26-0.77-2.47-1.6-3.45-2.63C382.64,346.26,384.13,346.4,384.31,346.06z"/>
			<path class="st26" d="M415.91,353.97c-1.98,1.37-4.2,1.04-6.34,1.16c-0.58,0.03-0.51-0.67-0.54-1.08
				c-0.04-0.6,0.51-0.55,0.94-0.6c1.71-0.2,3.42-0.41,5.13-0.62C415.61,353.07,416.03,353.35,415.91,353.97z"/>
			<path class="st27" d="M421.48,350.95c1.04-1.1,2.55-1.6,3.76-2.5c0.94-0.7,1.55,0.21,2.01,0.6c0.69,0.58-0.43,0.81-0.75,1.05
				c-0.85,0.64-1.86,1.11-2.77,1.69c-0.59,0.38-1.04,0.29-1.48-0.07C421.79,351.63,421.39,351.49,421.48,350.95z"/>
			<path class="st28" d="M378.95,340.6c-0.08-0.49-0.23-0.98-0.24-1.48c-0.01-0.46-0.66-1.2,0.5-1.29c0.79-0.06,2.07-0.65,2.05,0.83
				c-0.01,0.44,0.31,0.85,0.29,1.29c-0.02,0.59,1.19,1.25-0.21,1.78C379.98,342.25,379.12,341.92,378.95,340.6z"/>
			<path class="st29" d="M400.47,354.75c-1.24-0.27-2.62-0.45-3.86-0.89c-0.7-0.25-2.29,0.08-1.89-1.15
				c0.51-1.56,1.73-0.63,2.65-0.45c1.09,0.21,2.17,0.48,3.25,0.72c0.39,0.09,0.74,0.19,0.54,0.66
				C401.02,353.99,401.1,354.44,400.47,354.75z"/>
			<path class="st30" d="M421.48,350.95c0.26,0.26,0.51,0.51,0.77,0.77c-1.96,1.17-4.02,2.07-6.34,2.25
				c-0.52-0.22-0.64-0.7-0.81-1.14C417.24,352.25,419.2,351.02,421.48,350.95z"/>
			<path class="st31" d="M430.54,340.78c0.72,0.24,2-0.16,2.14,0.55c0.22,1.14-0.41,2.36-1.14,3.41c-0.53,0.76-1.1-0.02-1.66-0.06
				c-0.56-0.04-0.86-0.29-0.57-0.92C429.78,342.8,430.13,341.81,430.54,340.78z"/>
			<path class="st32" d="M381.64,333.56c-0.7-0.15-1.4-0.15-1.88-0.43c-0.55-0.32,0.06-0.83,0.24-1.21c1-2.13,1.84-2.65,3.16-2.05
				c0.21,0.1,0.57,0.32,0.55,0.36C383.04,331.35,382.34,332.45,381.64,333.56z"/>
			<path class="st33" d="M432.48,336.43c-0.89,0.07-1.86,0.45-2.26-0.15c-0.62-0.91-1.01-1.98-1.34-3.03
				c-0.11-0.36,0.57-0.36,0.9-0.51c0.57-0.25,0.98-0.17,1.24,0.33c0.16,0.29,0.45,0.53,0.57,0.83
				C431.89,334.67,432.14,335.46,432.48,336.43z"/>
			<path class="st34" d="M391.92,324.73c-1.21,0.62-2.4,1.16-3.49,1.81c-0.88,0.53-1.4,0.13-1.75-0.35
				c-0.53-0.75,0.48-0.78,0.88-1.01c0.72-0.42,1.51-0.73,2.27-1.11C390.78,323.6,391.42,323.85,391.92,324.73z"/>
			<path class="st35" d="M421.32,326.67c0.61-0.91,1.28-1.04,2.13-0.39c0.68,0.52,1.49,0.91,2.19,1.41c0.37,0.26,1.19,0.46,0.62,1.1
				c-0.55,0.62-1.19,0.46-1.8,0.02C423.45,328.06,422.37,327.38,421.32,326.67z"/>
			<path class="st36" d="M402.94,322.71c-1.45,0.14-2.9,0.26-4.36,0.41c-0.63,0.07-0.73-0.33-0.79-0.7
				c-0.11-0.68,0.51-0.51,0.89-0.54c1.32-0.12,2.65-0.2,3.97-0.32c0.58-0.05,0.75,0.23,0.83,0.65
				C403.56,322.61,403.29,322.69,402.94,322.71z"/>
			<path class="st37" d="M410.89,321.97c1.66,0.37,3.32,0.74,4.99,1.11c0.15,0.85-0.1,1.33-1.21,1.06
				c-1.19-0.29-2.38-0.58-3.59-0.82C409.83,323.07,410.17,322.57,410.89,321.97z"/>
			<path class="st38" d="M430.5,327.22c1.66-0.38,3.29-1,5-1.11c-1.13,0.42-2.25,0.85-3.38,1.27
				C431.52,327.6,430.9,327.89,430.5,327.22z"/>
		</g>
		<g>
			<path d="M418.65,340.84l-0.38,0.39l-24.23-2.75l-4.62,2.04l1.98-7.93l0.67-0.28l-1.84,7.38l3.75-1.65L418.65,340.84z
				 M419.23,340.11l-24.89-2.83l-2.7,1.64l1.66-6.68l1.74,2.22l18.9,2.15c-0.28-0.65-0.34-1.28-0.19-1.89
				c0.24-0.95,0.96-1.62,2.16-2.02l-0.03,0.12c-0.87,0.55-1.4,1.19-1.58,1.92c-0.17,0.69-0.08,1.34,0.29,1.93l1.33,0.15
				c-0.54-0.78-0.69-1.65-0.46-2.59c0.13-0.52,0.4-0.93,0.82-1.24c0.42-0.31,0.87-0.44,1.35-0.38c0.72,0.08,1.03,0.37,0.94,0.86
				c-0.08,0.44-0.41,0.62-0.98,0.56c-0.1-0.01-0.2-0.03-0.29-0.07c-0.07-0.02-0.12-0.03-0.15-0.03c-0.23-0.02-0.38,0.11-0.45,0.38
				c-0.17,0.68,0.03,1.39,0.59,2.14c0.57,0.74,1.37,1.34,2.4,1.8L419.23,340.11z"/>
		</g>
	</g>
	<g>
		<g>
			<path class="st7" d="M392.66,286.18c1.41-1.62,2.83-3.22,4.21-4.87c0.48-0.57,1.04-0.9,1.78-0.95c1.62,0.33,1.4,1.88,1.92,2.89
				c0.94,1.8,0.99,1.94,2.52,0.76c1.78-1.38,3.84-2.31,5.6-3.7c0.82-1.51,0.24-3.13,0.4-4.69c-0.01-0.21-0.01-0.41,0-0.61
				c0.01-0.72,0.04-1.44,0.14-2.15c1.71-1.67,4.03-2.19,6.18-2.93c5.87-2.01,11.87-2.81,18.02-1.2c0.23,1.38-0.83,2.28-1.4,3.33
				c-0.83,1.52-1.68,3.04-2.6,4.51c-0.69,1.11-0.41,1.78,0.74,2.27c1.24,0.53,2.38,1.25,3.37,2.13c1.2,1.07,2.08,0.83,2.94-0.36
				c1.44-1.99,3.34-3.55,5.07-5.27c0.43-0.43,0.87-0.94,1.62-0.79c0.74-0.03,1.43,0.05,1.79,0.82c5.69,6.26,7.33,13.82,7.35,21.9
				c0,0.96,0.05,1.96-0.75,2.71c-0.17,0.14-0.37,0.25-0.58,0.33c-2.72,0.67-5.48,1.22-8.21,1.9c-1.25,0.31-1.9,0.96-2.13,2.21
				c-0.52,2.84-1.05,5.69-2.13,8.39c-0.4,1,0.06,1.32,1,1.53c2.4,0.52,4.83,0.94,7.2,1.61c0.42,0.14,0.8,0.34,1.02,0.76
				c-0.03,2.69-1.69,4.77-2.87,6.98c-2.12,3.97-4.5,7.8-7.59,11.16c-1.27,1.86-3.14,3.22-4.43,5.07c-1.88,2.18-4.4,3.64-6.55,5.53
				c-0.38,0.34-0.87,0.45-1.38,0.22c-0.17-0.12-0.32-0.27-0.44-0.44c-1.3-2.08-1.92-4.45-2.85-6.69c-0.58-1.38-1.21-1.93-2.64-0.92
				c-1.96,1.38-4.19,2.3-6.35,3.32c-1.1,0.52-1.58,1.26-1.56,2.44c0.03,1.86,0.01,3.73,0.05,5.6c-0.01,4.62-0.14,4.84-4.84,5.36
				c-3.86,0.42-7.71,0.31-11.46-0.89c-0.59-0.16-1.17-0.32-1.76-0.48c-0.68-0.69-1.38-1.35-2.49-1.21c-1.55-0.93-3.4-1.47-4.3-3.23
				c0.35-0.53,0.66-1.1,1.04-1.61c1.11-1.99,2.17-4.01,3.46-5.9c0.72-1.07,0.76-2-0.27-2.92c-1.08-0.98-2.12-2.01-2.92-3.24
				c-0.6-0.92-1.16-0.74-1.81,0c-1.2,1.35-2.54,2.57-3.85,3.82c-0.53,0.51-0.99,1.21-1.91,1.09c-1.67-2.37-2.49-5.1-2.78-7.87
				c-0.56-5.38-0.99-10.79,0.56-16.12c0.05-0.19,0.2-0.35,0.31-0.52c1.4-0.88,3.07-0.9,4.61-1.33c1.14-0.32,1.82-0.92,2.08-2.05
				c0.44-1.88,1.16-3.67,1.76-5.5c0.66-2.04,0.52-2.14-1.5-2.69c-1.25-0.34-2.3,0.05-3.42,0.36c0.85-3.27,2.32-6.23,4.67-8.73
				c1.03,1.66,2.84,2.53,4.13,3.93c0.67,0.73,1.56,0.14,2.26-0.33c0.54-0.37,0.95-1.08,1.78-0.55c0.18,0.1,0.37,0.32,0.54,0.29
				c1.38-0.23,3.09-3.19,2.63-4.52c-0.04-0.27-0.13,0.06-0.06-0.19c1.04-3.4-1.54-4.71-3.73-6.27
				C393.33,287.29,392.5,287.09,392.66,286.18z"/>
			<path class="st8" d="M447.56,316.82c-0.3-0.13-0.6-0.26-0.91-0.39c3.01-5.1,3.91-10.72,4.26-16.47c0.13-0.05,0.26-0.1,0.4-0.14
				c1.44-0.45,2.17,0.72,3.11,1.33c1.23,0.8,2.42,1.68,3.21,2.95c-0.62,5.64-1.83,11.16-3.7,16.54c-0.15,0.15-0.33,0.23-0.54,0.25
				C451.26,319.79,449.19,318.61,447.56,316.82z"/>
			<path class="st9" d="M443.16,274.55c-2.36,2.36-4.74,4.69-7.05,7.09c-0.79,0.82-1.33,1.18-2.34,0.2
				c-1.24-1.21-2.73-2.2-4.41-2.78c-1.48-0.5-1.3-1.19-0.64-2.28c1.62-2.65,3.15-5.36,4.71-8.05c3,1.47,6.18,2.63,8.78,4.78
				C442.58,273.82,443.07,274,443.16,274.55z"/>
			<path class="st10" d="M425.03,345.53c2.83-1.53,5-3.88,7.5-5.83c4-1.31,7.9-2.86,11.57-4.93c0.69-0.39,1.71-0.92,2.15,0.45
				c-3.22,4.74-7.26,8.74-11.71,12.37c-0.86,0.7-1.6,1.55-2.81,1.67c-2.3-0.44-4.21-1.74-6.24-2.77
				C425.15,346.32,424.74,346.05,425.03,345.53z"/>
			<path class="st11" d="M457.63,304.1c-2.26-1.22-3.82-3.41-6.32-4.28c0.94-2.06,0.56-4.26,0.35-6.33
				c-0.57-5.71-2.11-11.16-5.4-16.03c-0.45-0.67-1.6-0.97-1.3-2.09c7.95,6.42,12.46,14.55,12.74,24.72
				C457.73,301.42,458.59,302.78,457.63,304.1z"/>
			<path class="st12" d="M380,339.76c2.26-2.23,4.52-4.47,6.89-6.81c1.41,2.14,2.84,4.01,4.67,5.56c0.55,0.46,0.71,0.87,0.27,1.57
				c-1.47,2.34-2.85,4.74-4.27,7.11c-0.68,0.43-1.27,0.74-1.99-0.09c-0.51-0.58-0.99-1.31-1.86-1.53
				C382.18,343.83,380.76,342,380,339.76z"/>
			<path class="st13" d="M425.03,345.53c1.97,1.68,4.66,2.13,6.69,3.73c-4.57,2.71-9.34,5.02-14.39,6.75
				c-2.02-0.12-3.73-1.07-5.45-1.98c-0.55-0.29-1.1-0.64-1.05-1.39c1.22-1.31,3.06-1.31,4.56-2.05c3.26-1.62,6.55-3.16,9.44-5.39
				C424.91,345.3,424.98,345.41,425.03,345.53z"/>
			<path class="st14" d="M394.33,298.63c-1.11-0.38-1.28,0.86-2.04,1.2c-1.23,0.54-1.9,0.38-2.69-0.52
				c-0.85-0.97-1.59-2.05-2.98-2.44c-0.95-0.27-0.26-1.03-0.33-1.56c0.39-2.65,2.34-4.42,3.87-6.41c0.74-0.96,1.28-2.16,2.5-2.72
				c1.18,0.85,2.29,1.84,3.56,2.54c2.38,1.32,2.31,3.18,1.54,5.31C397.25,296.01,396.33,297.7,394.33,298.63z"/>
			<path class="st15" d="M446.24,335.22c-0.79-0.48-1.46-0.39-2.26,0.16c-2.67,1.85-5.89,2.61-8.75,4.1
				c-0.86,0.45-1.8,0.23-2.71,0.22c1.11-1.93,2.97-3.23,4.34-4.94c1.67-1.45,3.26-2.98,5.24-4.09c0.96-0.54,1.84-1.19,2.91-1.61
				c2.19-0.86,3.37-2.87,4.92-4.45c1.22-1.24,1.98-2.87,3.48-3.86c0.17-0.04,0.34-0.08,0.5-0.12c0.34,0.21,0.16,0.46,0.05,0.7
				C451.78,326.17,449.69,331.06,446.24,335.22z"/>
			<path class="st16" d="M381.61,304.04c0.36-1.41,1.27-1.41,2.5-1.1c3.88,0.96,3.89,0.92,2.6,4.54c-0.25,0.71-0.5,1.43-0.73,2.15
				c-0.45,1.43-0.44,3.58-1.42,4.15c-1.84,1.09-4.19,1.48-6.48,1.47C379.06,311.46,380.29,307.73,381.61,304.04z"/>
			<path class="st17" d="M408.86,280.82c-2.19,1.5-4.41,2.97-6.55,4.53c-0.92,0.67-1.24,0.47-1.62-0.5
				c-0.6-1.53-1.36-2.99-2.05-4.48c2.95-2.41,5.93-4.78,9.34-6.56c0.83-0.01,1.31,0.49,1.67,1.14c0,0.16-0.01,0.31-0.01,0.47
				C409.1,277.18,409.91,279.12,408.86,280.82z"/>
			<path class="st18" d="M411.03,352.65c1.14,1.42,2.94,1.72,4.46,2.48c0.61,0.3,1.39,0.25,1.84,0.88
				c-5.62,1.47-11.2,1.33-16.73-0.41c-1.97-0.62-3.98-1.14-5.79-2.16c2.53,0,5.01,0.73,7.56,0.5c0.84-0.08,1.69-0.03,2.53-0.07
				c5.37-0.28,5.37-0.28,5.72-5.37C412.23,349.74,411.57,351.2,411.03,352.65z"/>
			<path class="st19" d="M383.72,345.59c0.08-0.68,0.21-0.59,0.65-0.14c0.87,0.88,1.62,2.05,3.19,1.76c-0.25,0.61-0.3,1.42-1.3,1.33
				C385.41,347.56,384.57,346.57,383.72,345.59z"/>
			<path class="st20" d="M409.65,274.95c-0.56-0.38-1.12-0.76-1.67-1.14c0.42-0.31,0.83-0.63,1.25-0.94
				C410.16,273.4,409.59,274.24,409.65,274.95z"/>
			<path class="st21" d="M390.56,351.76c1.41-0.75,1.97,0.2,2.49,1.21C392.22,352.57,391.39,352.17,390.56,351.76z"/>
			<path class="st22" d="M450.91,299.96c1.11,1.13,0.47,2.52,0.32,3.68c-0.46,3.54-1.35,7.01-2.52,10.39
				c-0.36,1.05-0.88,2.01-2.06,2.4c-2.61-0.56-5.2-1.17-7.82-1.64c-1.29-0.23-1.37-0.82-0.98-1.84c1.17-3.11,1.85-6.34,2.41-9.59
				c0.12-0.7,0.23-1.25,1.18-1.43C444.6,301.33,447.69,300.35,450.91,299.96z"/>
			<path class="st23" d="M411.03,352.65c-0.35-1.36,0.25-2.82-0.42-4.15c-0.02-1.93,0-3.87-0.08-5.8c-0.04-1.01,0.21-1.64,1.27-2.04
				c2.84-1.07,5.54-2.44,8.02-4.18c1.04-0.73,1.39-0.33,1.76,0.64c1.04,2.71,2.16,5.38,3.25,8.07c-0.31,1.18-1.28,1.63-2.25,2.21
				C418.92,349.57,415.16,351.48,411.03,352.65z"/>
			<path class="st24" d="M453.43,320.76c-1.74,3.17-4.25,5.78-6.93,8.11c-1.42,1.23-3.53,1.72-5.13,2.98
				c-0.89,0.7-2.12,0.93-2.69,2.1c-0.33,0.67-1.04,0.88-1.8,0.82c2.72-3.6,5.42-7.22,7.49-11.23c1.14-2.21,2.4-4.35,3.2-6.72
				C449.67,317.91,451.63,319.22,453.43,320.76z"/>
			<path class="st25" d="M411.99,333.78c-0.31-0.88,0.24-1.06,0.76-1.32c1.19-0.61,2.34-1.27,3.52-1.89
				c0.45-0.23,1.02-0.86,1.36,0.02c0.21,0.56,0.87,1.24-0.01,1.84c-1.45,0.99-2.95,1.92-4.6,2.54
				C411.53,335.52,412.31,334.08,411.99,333.78z"/>
			<path class="st26" d="M434.74,304.87c0.81,2.47-0.53,4.58-1.27,6.77c-0.2,0.59-1.01,0.28-1.52,0.16
				c-0.74-0.17-0.44-0.7-0.32-1.15c0.48-1.79,0.94-3.57,1.42-5.36C433.53,304.86,434.05,304.53,434.74,304.87z"/>
			<path class="st27" d="M433.46,298.22c-0.88-1.43-0.85-3.12-1.41-4.65c-0.44-1.19,0.91-1.48,1.56-1.8
				c0.98-0.49,0.79,0.72,0.94,1.13c0.41,1.08,0.55,2.25,0.86,3.37c0.2,0.73-0.1,1.15-0.71,1.46
				C434.41,298.16,434.07,298.51,433.46,298.22z"/>
			<path class="st28" d="M403.19,337.23c-0.62-0.09-1.26-0.12-1.86-0.28c-0.55-0.15-1.72,0.23-1.34-0.95
				c0.26-0.81,0.09-2.3,1.86-1.76c0.52,0.16,1.15-0.01,1.66,0.16c0.7,0.23,1.99-0.75,2.04,0.84
				C405.6,336.78,404.85,337.53,403.19,337.23z"/>
			<path class="st29" d="M429.18,320.63c-0.84,1.15-1.64,2.47-2.69,3.56c-0.59,0.61-0.86,2.33-2.17,1.49
				c-1.66-1.06-0.03-1.95,0.57-2.82c0.71-1.02,1.49-2,2.23-3.01c0.26-0.36,0.54-0.67,1.02-0.31
				C428.5,319.82,429.07,319.89,429.18,320.63z"/>
			<path class="st30" d="M433.46,298.22c0.42-0.17,0.83-0.33,1.25-0.5c0.57,2.38,0.79,4.76,0.03,7.15c-0.49,0.45-1.1,0.4-1.7,0.41
				C433.24,302.93,432.59,300.53,433.46,298.22z"/>
			<path class="st31" d="M425.11,285.55c0.59-0.64,0.65-2.06,1.55-1.95c1.45,0.18,2.65,1.24,3.61,2.34c0.69,0.8-0.49,1.1-0.77,1.64
				c-0.28,0.55-0.71,0.76-1.34,0.24C427.2,287.03,426.16,286.33,425.11,285.55z"/>
			<path class="st32" d="M395.91,332.06c-0.47,0.65-0.77,1.35-1.31,1.73c-0.61,0.44-0.97-0.35-1.35-0.67
				c-2.12-1.75-2.4-2.77-1.13-3.89c0.2-0.18,0.62-0.46,0.66-0.42C393.85,329.87,394.87,330.96,395.91,332.06z"/>
			<path class="st33" d="M420.71,282.08c-0.29,0.92-0.24,2.02-1.13,2.22c-1.35,0.3-2.79,0.32-4.19,0.28
				c-0.48-0.01-0.2-0.7-0.23-1.08c-0.06-0.66,0.21-1.04,0.91-1.13c0.42-0.05,0.82-0.26,1.23-0.28
				C418.36,282.05,419.41,282.08,420.71,282.08z"/>
			<path class="st34" d="M389.65,318.63c0.24,1.44,0.38,2.81,0.7,4.14c0.27,1.07-0.43,1.45-1.15,1.63
				c-1.12,0.27-0.73-0.75-0.84-1.24c-0.2-0.87-0.24-1.78-0.37-2.66C387.83,319.38,388.4,318.83,389.65,318.63z"/>
			<path class="st35" d="M404.34,289.83c-0.83-0.94-0.71-1.65,0.42-2.27c0.91-0.5,1.72-1.17,2.61-1.7c0.47-0.27,1.05-1.03,1.57-0.23
				c0.51,0.77,0.05,1.36-0.74,1.81C406.9,288.18,405.63,289.02,404.34,289.83z"/>
			<path class="st36" d="M391.87,306.86c-0.45,1.5-0.91,3-1.34,4.51c-0.19,0.65-0.7,0.61-1.17,0.54c-0.86-0.13-0.4-0.69-0.28-1.08
				c0.42-1.37,0.88-2.73,1.29-4.1c0.18-0.6,0.59-0.68,1.13-0.6C392.01,306.21,392,306.51,391.87,306.86z"/>
			<path class="st37" d="M394.33,298.63c1.14-1.54,2.28-3.07,3.42-4.61c1.08,0.15,1.55,0.57,0.76,1.59
				c-0.85,1.09-1.69,2.18-2.49,3.31C395.2,300.08,394.74,299.57,394.33,298.63z"/>
			<path class="st38" d="M408.86,280.82c0.25-1.8,0.19-3.65,0.78-5.4c0.03,1.28,0.07,2.56,0.09,3.84
				C409.74,279.93,409.83,280.66,408.86,280.82z"/>
		</g>
		<g>
			<path d="M420.17,297.5l0.3,0.52l-13.48,23.33l0.5,5.35l-8.66-4.78l-0.05-0.76l8.06,4.44l-0.4-4.34L420.17,297.5z M419.54,296.66
				l-13.85,23.97l0.82,3.29l-7.29-4.02l3.39-0.97l10.52-18.2c-0.89,0.05-1.67-0.1-2.34-0.47c-1.04-0.57-1.54-1.53-1.51-2.88
				l0.14,0.07c0.29,1.07,0.84,1.82,1.64,2.27c0.76,0.42,1.57,0.55,2.43,0.39l0.74-1.28c-1.17,0.27-2.26,0.12-3.29-0.45
				c-0.56-0.31-0.94-0.73-1.14-1.25c-0.19-0.53-0.16-1.02,0.11-1.49c0.4-0.69,0.87-0.9,1.42-0.64c0.49,0.23,0.58,0.63,0.26,1.18
				c-0.06,0.1-0.12,0.19-0.2,0.27c-0.05,0.06-0.08,0.11-0.1,0.14c-0.12,0.23-0.03,0.42,0.27,0.58c0.74,0.41,1.68,0.46,2.81,0.16
				c1.13-0.31,2.18-0.9,3.17-1.77L419.54,296.66z"/>
		</g>
	</g>
</g>
<g>
	<path class="st39" d="M603.92,152.29l1.04,0.03l-0.06,2.16l3.91,0.1l-0.04,1.65l-8.61-0.22l0.1-4.08l1.04,0.03l-0.06,2.43
		l2.62,0.07L603.92,152.29z"/>
	<path class="st39" d="M608.9,151.03l-8.61-0.22l0.04-1.65l8.61,0.22L608.9,151.03z"/>
	<path class="st39" d="M605.52,144.41l-5.02-1.65l0.05-1.82l8.61,0.22l-0.04,1.65l-5.63-0.31l4.05,1.34l-0.03,1.27l-4.11,1.13
		l5.64-0.03l-0.04,1.64l-8.61-0.22l0.05-1.82L605.52,144.41z"/>
</g>
<g>
	<path class="st39" d="M593.18,162.72l-8.61-0.22l0.04-1.64l8.61,0.22L593.18,162.72z"/>
	<path class="st39" d="M588.89,156.01l-4.16-0.11l0.04-1.65l8.61,0.22l-0.04,1.65l-1.71-0.04l-3.97,1.67l5.64,0.14l-0.04,1.65
		l-8.61-0.22l0.04-1.64L588.89,156.01z"/>
	<path class="st39" d="M584.28,151.79l-0.03,1.17l-1.4-0.82l0.04-1.51L584.28,151.79z M593.42,152.93l-8.61-0.22l0.04-1.64
		l8.61,0.22L593.42,152.93z"/>
	<path class="st39" d="M591.62,144.77l0.55,0.01c0.97,0.02,1.45,0.69,1.41,2.01l-0.03,1.06c-0.03,1.31-0.54,1.96-1.51,1.93
		l-5.69-0.14c-0.97-0.02-1.45-0.69-1.41-2.01l0.03-1.06c0.03-1.31,0.54-1.96,1.51-1.93l0.97,0.02l-0.04,1.65l-0.89-0.02
		c-0.33-0.01-0.51,0.23-0.52,0.72l-0.01,0.33c-0.01,0.43,0.15,0.66,0.49,0.66l5.52,0.14c0.33,0.01,0.51-0.2,0.52-0.64l0.01-0.41
		c0.01-0.43-0.15-0.66-0.49-0.66l-0.47-0.01L591.62,144.77z"/>
	<path class="st39" d="M593.66,143.54l-8.61-0.22l0.04-1.65l8.61,0.22L593.66,143.54z"/>
	<path class="st39" d="M593.79,138.45c-0.03,1.33-0.54,1.98-1.51,1.95l-5.67-0.14c-0.98-0.02-1.46-0.69-1.43-2.01l0.04-1.58
		c0.03-1.31,0.54-1.96,1.53-1.93l5.67,0.14c0.97,0.02,1.45,0.7,1.41,2.02L593.79,138.45z M592.76,138.03l0.02-0.84
		c0.01-0.43-0.15-0.65-0.49-0.66l-5.52-0.14c-0.33-0.01-0.51,0.23-0.52,0.72l-0.02,0.77c-0.01,0.48,0.15,0.72,0.48,0.73l5.52,0.14
		C592.57,138.76,592.74,138.52,592.76,138.03z"/>
</g>
</svg>
